<svg width="33" height="34" viewBox="0 0 33 34" fill="none" xmlns="http://www.w3.org/2000/svg">
<path d="M22.4325 22.777L31.2708 31.8363M22.4325 22.777C21.2763 23.9876 19.8975 24.9494 18.3756 25.6102C16.8538 26.2709 15.2193 26.6158 13.5666 26.6248C11.9139 26.6338 10.2758 26.3068 8.74723 25.6627C7.21863 25.0186 5.82982 24.0702 4.66117 22.8723C3.49251 21.6744 2.56721 20.2509 1.93881 18.6841C1.31041 17.1173 0.991375 15.4383 1.00018 13.7443C1.00898 12.0502 1.34544 10.3748 1.99009 8.81496C2.63474 7.25509 3.57478 5.84175 4.75582 4.65671C7.10838 2.29616 10.2745 0.98221 13.5666 1.00018C16.8587 1.01815 20.0109 2.3666 22.3388 4.75269C24.6667 7.13879 25.9823 10.3699 25.9998 13.7443C26.0174 17.1187 24.7355 20.3656 22.4325 22.777Z" stroke="#C3937C" stroke-width="2" stroke-linecap="square"/>
</svg>
