<svg width="188" height="188" viewBox="0 0 188 188" fill="none" xmlns="http://www.w3.org/2000/svg">
<g clip-path="url(#clip0_50_1625)">
<path d="M94.0184 101.205C98.0095 101.205 101.245 97.9791 101.245 94C101.245 90.0209 98.0095 86.7952 94.0184 86.7952C90.0274 86.7952 86.792 90.0209 86.792 94C86.792 97.9791 90.0274 101.205 94.0184 101.205Z" fill="#C3937C"/>
<path d="M54.8754 8.78088L56.6067 8.08667L61.8571 13.6404V6.00403L63.6261 5.30982L63.5508 14.5222L70.4762 21.5018L70.6455 2.38287L72.6403 1.59485L72.1698 23.303L70.5514 23.941L62.9674 16.3234L62.704 27.0555L61.1044 27.6935L45.8047 12.2332L47.7618 11.4451L61.1044 25.198L61.2926 15.404L54.8754 8.78088Z" fill="#C3937C"/>
<path d="M96.164 18.1809L96.2769 19.9258L82.8403 20.8451L81.4854 0.919398L94.6585 0.0187988L94.7714 1.76371L83.5554 2.53297L84.0447 9.719L93.8117 9.06231L93.9246 10.7134L84.1576 11.3701L84.6846 18.9877L96.1452 18.1996L96.164 18.1809Z" fill="#C3937C"/>
<path d="M100.003 20.0946L103.616 0.450317L110.316 1.66988C111.896 1.95132 113.214 2.47667 114.305 3.2084C115.378 3.94014 116.244 4.82197 116.865 5.85391C117.486 6.88585 117.881 8.03036 118.069 9.28744C118.238 10.5445 118.22 11.8579 117.956 13.2088C117.674 14.7098 117.203 16.0232 116.545 17.1489C115.886 18.2747 115.058 19.194 114.079 19.907C113.101 20.62 111.991 21.089 110.748 21.3517C109.506 21.6144 108.151 21.6144 106.721 21.3517L100.022 20.1322L100.003 20.0946ZM115.999 12.8336C116.225 11.6515 116.244 10.5445 116.093 9.49383C115.942 8.44313 115.623 7.50501 115.114 6.6607C114.606 5.81639 113.929 5.12217 113.082 4.5593C112.235 3.99643 111.2 3.60241 109.996 3.37726L105.253 2.51419L102.261 18.7437L107.004 19.6068C108.227 19.832 109.337 19.8132 110.353 19.5693C111.369 19.3254 112.254 18.8938 113.007 18.2747C113.778 17.6555 114.399 16.8862 114.907 15.9669C115.416 15.0288 115.773 13.9968 115.98 12.8336H115.999Z" fill="#C3937C"/>
<path d="M119.575 24.3538L128.364 6.39807L134.48 9.36254C135.91 10.0568 137.058 10.9011 137.905 11.8955C138.752 12.8899 139.335 13.9594 139.655 15.1226C139.975 16.2859 140.05 17.4867 139.881 18.7625C139.711 20.0196 139.335 21.2767 138.733 22.515C138.055 23.8847 137.265 25.0104 136.305 25.9298C135.364 26.8304 134.31 27.5059 133.181 27.9186C132.052 28.3314 130.848 28.5003 129.568 28.4252C128.307 28.3502 127.009 27.9749 125.691 27.337L119.575 24.3725V24.3538ZM136.945 21.652C137.472 20.5637 137.811 19.513 137.942 18.4623C138.074 17.4116 138.018 16.4172 137.754 15.4791C137.491 14.541 137.02 13.6779 136.362 12.9087C135.684 12.1394 134.8 11.4827 133.708 10.9386L129.361 8.83719L122.116 23.6595L126.463 25.7609C127.573 26.3051 128.665 26.5865 129.7 26.624C130.735 26.6615 131.713 26.4927 132.617 26.0987C133.52 25.7047 134.329 25.1418 135.082 24.3725C135.835 23.6033 136.456 22.7027 136.964 21.6332L136.945 21.652Z" fill="#C3937C"/>
<path d="M137.358 34.2041L149.327 18.1809L150.908 19.3629L138.939 35.3861L137.358 34.2041Z" fill="#C3937C"/>
<path d="M156.78 28.8943L144.623 39.8328L143.306 38.3693L158.173 24.9729L159.189 26.0986L155.707 47.0563L168.071 35.9302L169.389 37.3937L154.541 50.7713L153.393 49.4955L156.78 28.8755V28.8943Z" fill="#C3937C"/>
<path d="M166.189 66.5505C163.536 65.7812 161.673 64.299 160.6 62.1226C159.998 60.903 159.716 59.6647 159.753 58.3888C159.772 57.113 160.036 55.8934 160.525 54.7114C161.014 53.5481 161.71 52.4786 162.595 51.5218C163.479 50.5649 164.496 49.8144 165.644 49.2515C166.848 48.6699 168.09 48.3134 169.389 48.182C170.687 48.0695 171.948 48.182 173.134 48.501C174.338 48.8387 175.429 49.3828 176.427 50.1521C177.424 50.9214 178.215 51.897 178.798 53.0978C179.231 53.9796 179.513 54.824 179.682 55.6495C179.833 56.4751 179.889 57.2443 179.814 57.9761C179.739 58.7078 179.57 59.402 179.287 60.0399C179.005 60.6778 178.647 61.297 178.215 61.8599L176.634 60.9405C177.462 59.8148 177.913 58.6327 177.97 57.4507C178.026 56.2499 177.763 55.0491 177.18 53.8483C176.69 52.8539 176.032 52.0659 175.222 51.4655C174.413 50.8651 173.51 50.4711 172.531 50.2459C171.553 50.0208 170.537 49.9832 169.483 50.1146C168.429 50.2459 167.413 50.5649 166.453 51.0339C165.437 51.5218 164.552 52.1784 163.818 52.9665C163.084 53.7545 162.501 54.6176 162.124 55.5557C161.748 56.4938 161.541 57.4695 161.541 58.4826C161.541 59.4958 161.767 60.4902 162.237 61.4471C162.746 62.479 163.461 63.3421 164.402 64.0363C165.343 64.7305 166.547 65.2559 168.015 65.6124L171.007 64.1489L169.05 60.1525L170.424 59.4771L173.115 64.9557L164.27 69.2711L163.536 67.7888L166.171 66.513L166.189 66.5505Z" fill="#C3937C"/>
<path d="M184.405 90.8667C184.989 90.2475 185.422 89.4407 185.742 88.4838C186.043 87.5082 186.137 86.4387 186.024 85.2379C185.855 83.4742 185.403 82.2359 184.65 81.5042C183.897 80.7724 182.956 80.4535 181.827 80.5661C181.225 80.6223 180.736 80.7724 180.378 81.0351C180.021 81.279 179.72 81.6543 179.475 82.1234C179.23 82.5924 179.042 83.1928 178.91 83.9245C178.779 84.6563 178.647 85.4818 178.534 86.4575C178.421 87.5457 178.252 88.5214 178.064 89.4032C177.857 90.285 177.593 91.0355 177.217 91.6735C176.84 92.3114 176.389 92.818 175.824 93.1932C175.26 93.5685 174.526 93.7936 173.622 93.8874C172.7 93.9812 171.891 93.8874 171.176 93.5872C170.461 93.3058 169.859 92.8555 169.35 92.2738C168.842 91.6922 168.428 90.9605 168.127 90.0974C167.826 89.2343 167.619 88.2962 167.525 87.2455C167.224 84.1685 167.939 81.4104 169.652 78.99L171.345 79.8156C171.006 80.2096 170.687 80.6599 170.404 81.1852C170.122 81.7106 169.877 82.2922 169.689 82.9301C169.501 83.5681 169.369 84.2247 169.294 84.9377C169.219 85.6507 169.219 86.3824 169.294 87.1329C169.445 88.7277 169.859 89.9285 170.517 90.7541C171.176 91.5796 172.079 91.9361 173.246 91.8423C173.867 91.786 174.375 91.5984 174.77 91.317C175.165 91.0168 175.504 90.604 175.749 90.0786C176.012 89.5345 176.219 88.8966 176.37 88.1273C176.52 87.3581 176.671 86.4762 176.784 85.4631C176.934 84.3936 177.085 83.4555 177.273 82.6487C177.461 81.8419 177.725 81.1477 178.064 80.5661C178.402 79.9844 178.835 79.5341 179.362 79.2152C179.889 78.8962 180.548 78.6898 181.357 78.6148C182.279 78.521 183.107 78.6148 183.86 78.8962C184.612 79.1776 185.271 79.6092 185.798 80.1908C186.344 80.7725 186.777 81.4854 187.115 82.3297C187.454 83.1553 187.661 84.1122 187.774 85.1441C187.906 86.4762 187.812 87.677 187.511 88.7465C187.209 89.816 186.739 90.8104 186.08 91.7297L184.405 90.9229V90.8667Z" fill="#C3937C"/>
<path d="M168.071 111.43L166.34 111.205L168.128 97.9026L188 100.567L186.25 113.626L184.519 113.4L186.006 102.293L178.836 101.336L177.537 111.018L175.881 110.792L177.179 101.111L169.596 100.098L168.071 111.449V111.43Z" fill="#C3937C"/>
<path d="M165.342 114.77L183.992 122.087L180.887 129.949C180.567 130.756 180.115 131.431 179.494 131.957C178.873 132.482 178.215 132.895 177.462 133.176C176.709 133.439 175.937 133.589 175.128 133.57C174.319 133.57 173.566 133.42 172.832 133.139C172.155 132.876 171.534 132.519 170.988 132.069C170.442 131.619 169.991 131.131 169.633 130.568C169.276 130.024 169.031 129.424 168.88 128.767C168.73 128.129 168.73 127.472 168.862 126.797L159.866 128.523L160.675 126.459L169.276 124.789L171.44 119.292L164.552 116.59L165.267 114.751L165.342 114.77ZM173.133 119.949L170.743 126.028C170.536 126.572 170.461 127.116 170.518 127.641C170.574 128.185 170.743 128.692 171.026 129.161C171.308 129.63 171.666 130.062 172.098 130.437C172.531 130.812 173.039 131.112 173.604 131.319C174.169 131.525 174.752 131.656 175.335 131.656C175.919 131.656 176.483 131.563 177.01 131.375C177.537 131.187 177.989 130.906 178.403 130.531C178.817 130.155 179.118 129.724 179.325 129.217L181.658 123.307L173.152 119.967L173.133 119.949Z" fill="#C3937C"/>
<path d="M174.639 142.764L156.178 138.355L166.302 154.359L165.098 156.029L153.675 137.623L154.672 136.234L175.825 141.113L174.62 142.782L174.639 142.764Z" fill="#C3937C"/>
<path d="M146.203 146.272L160.148 160.626L158.737 161.995L144.792 147.642L146.203 146.272Z" fill="#C3937C"/>
<path d="M147.766 159.087C148.443 160.082 148.933 161.189 149.234 162.427C149.554 163.646 149.629 164.885 149.478 166.104C149.328 167.324 148.933 168.525 148.274 169.669C147.615 170.814 146.655 171.808 145.413 172.634C143.927 173.628 142.44 174.135 140.935 174.172C139.429 174.21 138.074 173.853 136.851 173.103L137.604 171.452C138.243 171.827 138.864 172.071 139.504 172.183C140.144 172.296 140.746 172.333 141.349 172.277C141.951 172.221 142.515 172.09 143.042 171.883C143.588 171.677 144.077 171.414 144.529 171.114C145.526 170.438 146.279 169.65 146.768 168.731C147.258 167.812 147.559 166.855 147.634 165.842C147.728 164.828 147.634 163.834 147.333 162.84C147.032 161.845 146.618 160.926 146.072 160.082C145.451 159.162 144.698 158.393 143.814 157.755C142.929 157.136 141.988 156.667 141.01 156.404C140.012 156.123 139.015 156.048 137.999 156.179C136.983 156.31 136.023 156.667 135.138 157.248C134.668 157.567 134.235 157.943 133.821 158.393C133.407 158.843 133.049 159.35 132.767 159.913C132.485 160.476 132.259 161.076 132.127 161.733C131.996 162.371 131.977 163.065 132.071 163.778L130.245 163.984C130.095 163.177 130.095 162.389 130.264 161.583C130.434 160.776 130.697 160.025 131.073 159.294C131.45 158.562 131.92 157.905 132.466 157.286C133.012 156.667 133.614 156.141 134.254 155.729C135.402 154.959 136.606 154.528 137.905 154.378C139.203 154.246 140.445 154.34 141.687 154.697C142.929 155.053 144.058 155.597 145.131 156.367C146.204 157.136 147.088 158.055 147.803 159.106L147.766 159.087Z" fill="#C3937C"/>
<path d="M112.443 167.624L111.859 165.973L124.543 161.47L131.262 180.289L118.822 184.698L118.239 183.047L128.815 179.294L126.388 172.502L117.166 175.786L116.602 174.228L125.823 170.964L123.264 163.778L112.443 167.624Z" fill="#C3937C"/>
<path d="M86.8865 167.643L89.1636 170.101C89.9728 169.275 90.8949 168.618 91.9111 168.168C92.9462 167.699 94.0565 167.493 95.2609 167.511C96.1454 167.511 96.9734 167.662 97.745 167.943C98.5165 168.224 99.194 168.6 99.7586 169.087C100.323 169.575 100.775 170.157 101.095 170.832C101.415 171.508 101.584 172.24 101.565 173.046C101.565 173.722 101.433 174.341 101.189 174.904C100.963 175.467 100.643 175.973 100.229 176.461C99.8338 176.93 99.3634 177.362 98.8553 177.775C98.3472 178.187 97.8014 178.563 97.218 178.938C97.7261 179.482 98.1402 179.988 98.4789 180.42C98.8176 180.852 99.0999 181.264 99.3069 181.621C99.5139 181.996 99.6645 182.353 99.7586 182.69C99.8527 183.028 99.8903 183.384 99.8903 183.741C99.8903 184.36 99.7398 184.942 99.4763 185.467C99.2128 185.992 98.8553 186.462 98.4036 186.837C97.952 187.212 97.4062 187.531 96.7852 187.737C96.1642 187.963 95.5055 188.056 94.7904 188.038C94.1317 188.038 93.5296 187.925 92.965 187.719C92.4004 187.531 91.9111 187.25 91.4971 186.893C91.0831 186.537 90.7444 186.124 90.5185 185.617C90.2927 185.129 90.161 184.585 90.1798 184.004C90.1798 183.422 90.3115 182.897 90.5562 182.428C90.8008 181.959 91.1207 181.508 91.5159 181.077C91.9111 180.645 92.3816 180.251 92.9273 179.857C93.4731 179.463 94.0377 179.088 94.6399 178.694L89.1259 172.746C88.7308 173.459 88.4296 174.228 88.2038 175.054C87.978 175.879 87.8463 176.761 87.8274 177.681H86.1902C86.2278 176.499 86.3972 175.392 86.7171 174.378C87.0182 173.347 87.4511 172.408 88.0156 171.564L84.3271 167.624L86.8677 167.662L86.8865 167.643ZM95.0539 169.05C94.0941 169.05 93.2096 169.219 92.3816 169.613C91.5724 170.007 90.8385 170.551 90.2174 171.245L96.183 177.737C97.1992 177.062 98.0272 176.349 98.7047 175.598C99.3822 174.848 99.7209 173.966 99.7398 172.953C99.7398 172.333 99.6268 171.789 99.3634 171.301C99.0999 170.814 98.7424 170.401 98.2907 170.082C97.8391 169.744 97.3498 169.5 96.7852 169.331C96.2206 169.163 95.6561 169.069 95.0727 169.069L95.0539 169.05ZM98.1402 183.741C98.1402 183.516 98.1213 183.291 98.0461 183.066C97.9896 182.84 97.8579 182.578 97.6697 182.277C97.4815 181.977 97.2369 181.64 96.9358 181.246C96.6347 180.852 96.2206 180.401 95.7313 179.857C94.621 180.551 93.7366 181.208 93.0403 181.827C92.344 182.446 91.9864 183.159 91.9676 183.966C91.9676 184.698 92.2122 185.298 92.758 185.786C93.3037 186.255 93.9812 186.518 94.828 186.518C95.2985 186.518 95.7314 186.462 96.1265 186.311C96.5217 186.161 96.8793 185.974 97.1616 185.711C97.4439 185.448 97.6885 185.148 97.8579 184.829C98.0272 184.491 98.1025 184.135 98.1213 183.741H98.1402Z" fill="#C3937C"/>
<path d="M74.0334 165.297L67.0328 184.022L59.2606 181.133C58.4514 180.833 57.774 180.383 57.2094 179.782C56.6637 179.182 56.2496 178.525 55.9485 177.775C55.6663 177.043 55.5157 176.274 55.4969 175.448C55.4781 174.622 55.6098 173.872 55.8733 173.159C56.1555 172.39 56.5696 171.695 57.0965 171.076C57.6234 170.457 58.2256 169.969 58.9219 169.613C59.5994 169.238 60.3333 169.012 61.1237 168.919C61.9141 168.825 62.7045 168.937 63.5137 169.238L69.5922 171.508L72.1704 164.603L74.0146 165.297H74.0334ZM68.99 173.159L62.9868 170.926C62.441 170.72 61.8953 170.664 61.3684 170.72C60.8226 170.795 60.3333 170.964 59.8629 171.245C59.3924 171.527 58.9784 171.883 58.602 172.333C58.2256 172.784 57.9433 173.29 57.7363 173.853C57.5105 174.435 57.4164 175.016 57.4164 175.617C57.4164 176.217 57.5293 176.761 57.7363 177.287C57.9433 177.793 58.2256 178.262 58.602 178.656C58.9972 179.05 59.43 179.351 59.9381 179.538L65.7908 181.715L68.99 173.178V173.159Z" fill="#C3937C"/>
<path d="M57.8302 158.599L46.7271 175.242L45.0898 174.153L55.2332 158.975L45.598 152.577L46.5765 151.132L57.849 158.618L57.8302 158.599Z" fill="#C3937C"/>
<path d="M25.4055 158.093L24.2764 156.873L33.3659 137.229L34.7773 138.767L31.9356 144.903L38.0329 151.507L44.3749 149.162L45.8051 150.719L25.3867 158.111L25.4055 158.093ZM31.1076 146.272L26.5534 155.916L36.6215 152.22L31.1076 146.254V146.272Z" fill="#C3937C"/>
<path d="M16.4105 140.587L30.9951 133.176L31.8984 134.921L14.0393 144.002L13.343 142.651L22.1691 123.307L7.33983 130.85L6.43652 129.086L24.2579 120.024L25.0483 121.562L16.4105 140.587Z" fill="#C3937C"/>
<path d="M6.26711 116.421L22.376 113.513L22.7336 115.446L3.01146 119.01L2.748 117.509L16.8057 101.524L0.395643 104.488L0.0380859 102.556L19.7226 99.0096L20.0237 100.698L6.2483 116.421H6.26711Z" fill="#C3937C"/>
<path d="M20.042 93.7937L0 93.4747L0.0376376 91.5046L20.0797 91.8236L20.042 93.7937Z" fill="#C3937C"/>
<path d="M4.34728 81.2228L20.3433 84.6563L19.9293 86.5888L0.338867 82.3673L0.658787 80.885L19.7599 71.4475L3.48161 67.9577L3.89562 66.0251L23.4672 70.2279L23.1096 71.8978L4.34728 81.204V81.2228Z" fill="#C3937C"/>
<path d="M29.5452 51.5969C30.4673 54.2049 30.3544 56.5689 29.2064 58.7079C28.5666 59.8899 27.7197 60.8468 26.6659 61.5785C25.612 62.3103 24.4641 62.7981 23.222 63.0795C21.98 63.361 20.7191 63.4172 19.4206 63.2671C18.1221 63.117 16.9177 62.723 15.7886 62.1226C14.6218 61.4847 13.5868 60.6779 12.7399 59.7023C11.8743 58.7266 11.2344 57.6384 10.8204 56.4751C10.3876 55.3119 10.1994 54.0923 10.2559 52.8352C10.3123 51.5781 10.6511 50.3773 11.2721 49.1953C11.7426 48.3322 12.2507 47.6005 12.834 47.0001C13.4174 46.3997 14.0196 45.9119 14.6595 45.5366C15.2993 45.1614 15.958 44.8987 16.6543 44.7486C17.3506 44.5985 18.0469 44.5234 18.762 44.561L18.9313 46.3809C17.5199 46.3809 16.3155 46.6999 15.2993 47.3378C14.2831 47.9945 13.4551 48.8951 12.834 50.0771C12.3071 51.0528 12.0437 52.0472 12.0248 53.0416C12.0248 54.0548 12.1942 55.0117 12.5894 55.931C12.9846 56.8504 13.5303 57.6947 14.2643 58.4827C14.9982 59.252 15.8262 59.8899 16.7672 60.3965C17.7646 60.9218 18.7996 61.2596 19.8723 61.4097C20.945 61.5598 21.98 61.5035 22.9774 61.2783C23.9748 61.0532 24.8781 60.6404 25.7061 60.04C26.5341 59.4584 27.2116 58.6891 27.7197 57.751C28.2655 56.7378 28.5478 55.6496 28.5666 54.4863C28.5854 53.323 28.3219 52.0284 27.7385 50.64L24.8028 49.0639L22.6951 52.9853L21.359 52.2723L24.2571 46.8875L32.9325 51.5594L32.1422 53.0228L29.564 51.6344L29.5452 51.5969Z" fill="#C3937C"/>
</g>
<defs>
<clipPath id="clip0_50_1625">
<rect width="188" height="188" fill="white"/>
</clipPath>
</defs>
</svg>
