<svg width="34" height="33" viewBox="0 0 34 33" fill="none" xmlns="http://www.w3.org/2000/svg">
<path d="M14.9585 1.38194C15.5572 -0.460684 18.1641 -0.460689 18.7628 1.38193L21.3718 9.4118C21.6396 10.2358 22.4075 10.7938 23.2739 10.7938H31.717C33.6545 10.7938 34.46 13.273 32.8926 14.4118L26.062 19.3745C25.361 19.8838 25.0677 20.7866 25.3354 21.6106L27.9445 29.6405C28.5432 31.4831 26.4343 33.0153 24.8668 31.8765L18.0362 26.9138C17.3352 26.4045 16.386 26.4045 15.6851 26.9138L8.85447 31.8765C7.28704 33.0153 5.17807 31.4831 5.77678 29.6405L8.38584 21.6106C8.65359 20.7866 8.36027 19.8838 7.6593 19.3745L0.828689 14.4118C-0.738738 13.273 0.0668116 10.7938 2.00426 10.7938H10.4474C11.3138 10.7938 12.0817 10.2358 12.3495 9.4118L14.9585 1.38194Z" fill="#D9D9D9"/>
</svg>
