<svg width="296" height="283" viewBox="0 0 296 283" fill="none" xmlns="http://www.w3.org/2000/svg">
<path d="M236.237 275.935C232.816 272.265 229.595 268.413 226.588 264.398L226.588 282.381L222.322 278.115L222.322 258.424C219.47 254.192 216.855 249.806 214.488 245.285C214.349 245.243 214.22 245.174 214.109 245.081C213.998 244.988 213.907 244.873 213.842 244.744C213.777 244.614 213.739 244.473 213.73 244.328C213.721 244.184 213.742 244.039 213.791 243.902C211.259 238.938 209.025 233.826 207.104 228.594C204.713 228.005 202.38 227.206 200.13 226.206C189.244 230.685 179.46 222.665 176.847 212.106C176.81 211.962 176.814 211.81 176.859 211.668C175.712 211.432 176.179 209.684 177.336 209.897C182.872 211.038 187.677 209.482 192.757 212.752C197.078 215.523 199.607 219.917 201.198 224.666C202.901 225.413 204.655 226.04 206.446 226.543C204.28 220.336 202.558 213.983 201.293 207.532C201.053 207.501 200.826 207.406 200.636 207.256L190.042 198.54C189.103 199.459 187.859 200.002 186.547 200.066C185.234 200.13 183.943 199.711 182.919 198.887C181.895 198.064 181.208 196.894 180.988 195.598C180.768 194.302 181.031 192.971 181.727 191.856C182.423 190.741 183.503 189.919 184.764 189.547C186.024 189.175 187.377 189.278 188.567 189.836C189.757 190.394 190.701 191.37 191.22 192.577C191.74 193.784 191.798 195.14 191.386 196.388L200.641 203.991C199.824 199.184 199.262 194.336 198.955 189.47C197.759 189.336 196.643 188.8 195.792 187.949C194.94 187.098 194.403 185.983 194.269 184.786C194.134 183.59 194.411 182.383 195.052 181.365C195.694 180.346 196.663 179.575 197.8 179.18C198.937 178.784 200.174 178.786 201.31 179.187C202.445 179.587 203.411 180.361 204.048 181.382C204.686 182.404 204.957 183.611 204.818 184.807C204.679 186.003 204.137 187.116 203.282 187.964C202.764 188.478 202.146 188.881 201.467 189.149C201.67 192.521 201.99 195.887 202.44 199.214C204.819 196.97 207.271 194.807 209.796 192.724C209.19 191.576 209.026 190.245 209.334 188.985C209.643 187.724 210.402 186.62 211.469 185.881C212.536 185.142 213.837 184.82 215.126 184.975C216.415 185.13 217.602 185.752 218.463 186.723C219.324 187.694 219.8 188.947 219.8 190.245C219.8 191.543 219.325 192.796 218.464 193.768C217.603 194.739 216.416 195.361 215.127 195.517C213.839 195.672 212.538 195.35 211.47 194.612C208.52 197.045 205.654 199.574 202.906 202.232C205.011 215.55 209.083 228.482 214.988 240.604C217.123 234.514 219.582 228.543 222.356 222.716L222.362 181.979C216.335 171.339 211.261 160.187 207.199 148.654C207.082 148.613 206.973 148.55 206.879 148.468L200.793 143.079C200.744 143.111 200.691 143.137 200.636 143.157C190.509 145.54 183.316 136.875 183.293 127.344C183.293 127.344 183.293 127.344 183.332 127.304C183.243 127.156 183.201 126.983 183.211 126.81C183.221 126.637 183.284 126.471 183.39 126.334C183.497 126.198 183.642 126.096 183.807 126.044C183.973 125.991 184.15 125.99 184.316 126.04C188.969 127.726 194.769 128.996 198.618 132.272C201.658 134.852 202.187 138.313 202.44 142.062L202.4 142.101L206.036 145.321C204.556 140.807 203.268 136.255 202.17 131.665C202.113 131.53 202.083 131.385 202.08 131.238C201.585 129.17 201.139 127.094 200.742 125.011C200.651 124.943 200.57 124.861 200.501 124.77C197.862 121.315 194.894 118.125 191.638 115.244C191.526 115.357 191.419 115.463 191.301 115.581C190.359 116.415 189.148 116.881 187.89 116.896C186.632 116.911 185.41 116.474 184.448 115.663C183.486 114.853 182.847 113.723 182.648 112.481C182.449 111.239 182.703 109.966 183.364 108.896C184.025 107.825 185.049 107.028 186.248 106.649C187.448 106.271 188.744 106.336 189.9 106.833C191.056 107.33 191.994 108.226 192.544 109.357C193.095 110.489 193.22 111.78 192.897 112.996C195.371 115.168 197.691 117.508 199.843 119.999C199.184 115.817 198.708 111.629 198.416 107.433C198.418 107.353 198.43 107.274 198.449 107.197C197.198 107.016 196.057 106.383 195.242 105.416C194.427 104.45 193.995 103.218 194.029 101.954C194.063 100.69 194.559 99.483 195.425 98.5613C196.29 97.6397 197.463 97.0678 198.723 96.9544C199.982 96.841 201.239 97.1941 202.255 97.9463C203.271 98.6986 203.975 99.7978 204.234 101.035C204.493 102.273 204.288 103.562 203.659 104.659C203.03 105.755 202.02 106.582 200.821 106.983C200.889 107.124 200.931 107.277 200.945 107.433C201.382 113.71 202.238 119.95 203.507 126.113C204.547 123.057 205.862 120.102 207.436 117.284L207.351 117.2C206.485 116.244 205.998 115.005 205.98 113.716C205.961 112.426 206.414 111.174 207.253 110.194C208.091 109.214 209.258 108.574 210.535 108.393C211.812 108.212 213.111 108.502 214.189 109.21C215.268 109.918 216.051 110.994 216.392 112.238C216.733 113.482 216.61 114.807 216.044 115.966C215.478 117.125 214.509 118.038 213.319 118.534C212.128 119.03 210.798 119.076 209.577 118.661C207.407 122.594 205.751 126.789 204.648 131.142C206.175 137.52 208.068 143.804 210.318 149.963C212.907 145.01 215.868 140.261 219.175 135.756C219.209 135.614 219.27 135.479 219.356 135.36C219.442 135.242 219.55 135.141 219.675 135.065C220.563 133.84 221.459 132.622 222.362 131.412L222.362 60.0754L169.081 60.081C162.128 62.7998 154.978 64.9829 147.692 66.6111C151.716 68.6792 155.773 70.691 159.864 72.6467L172.222 69.5277C172.021 68.2886 172.273 67.0184 172.934 65.9511C173.595 64.8837 174.62 64.0912 175.819 63.7194C177.018 63.3477 178.311 63.4218 179.46 63.9281C180.608 64.4343 181.535 65.3387 182.07 66.4745C182.605 67.6104 182.711 68.9011 182.369 70.1091C182.027 71.317 181.26 72.3608 180.21 73.048C179.159 73.7352 177.896 74.0196 176.652 73.8487C175.408 73.6779 174.268 73.0634 173.442 72.1184C173.369 72.0454 173.329 71.9498 173.262 71.8711L163.512 74.3382C164.782 74.9227 166.046 75.524 167.344 76.1253C168.45 75.4797 169.753 75.2588 171.01 75.5041C172.267 75.7494 173.392 76.444 174.174 77.458C174.956 78.4721 175.341 79.7361 175.259 81.014C175.177 82.2919 174.632 83.4962 173.727 84.4017C172.821 85.3072 171.617 85.8519 170.339 85.9341C169.061 86.0163 167.797 85.6304 166.783 84.8484C165.769 84.0664 165.075 82.9418 164.829 81.685C164.584 80.4281 164.805 79.125 165.45 78.0192C163.48 77.1125 161.513 76.1984 159.55 75.2768C159.348 75.2966 159.145 75.2622 158.961 75.1773C158.778 75.0923 158.62 74.9597 158.504 74.7934C157.588 74.3607 156.689 73.9112 155.779 73.4616C156.41 75.9546 157.295 78.3762 158.42 80.6885C159.662 80.9343 160.772 81.6229 161.545 82.6261C162.317 83.6294 162.698 84.879 162.618 86.1424C162.537 87.4059 162.001 88.597 161.107 89.4943C160.214 90.3916 159.026 90.9338 157.763 91.0201C156.5 91.1064 155.248 90.7309 154.241 89.9634C153.234 89.196 152.541 88.0888 152.289 86.848C152.038 85.6073 152.246 84.3174 152.874 83.2185C153.503 82.1195 154.509 81.2863 155.706 80.874C154.46 78.1364 153.519 75.27 152.902 72.3264C152.89 72.2406 152.89 72.1537 152.902 72.0679C145.84 68.5874 138.875 64.9233 132.007 61.0756C132.146 62.5953 132.392 64.1034 132.744 65.5884C136.363 66.0042 140.218 67.1057 141.932 70.6629C142.61 72.3628 142.904 74.1918 142.792 76.0186C142.854 80.4525 142.904 83.9086 144.843 87.9605C144.901 88.0767 144.934 88.2044 144.938 88.3345C144.942 88.4646 144.917 88.5939 144.865 88.7135C144.849 88.8342 144.807 88.9501 144.741 89.0528C144.676 89.1555 144.589 89.2425 144.486 89.3078C144.383 89.3732 144.267 89.4152 144.146 89.431C144.025 89.4468 143.903 89.4358 143.786 89.3991C136.217 87.213 118.913 73.1244 130.94 65.8637C130.485 63.9759 130.193 62.0525 130.069 60.1147H90.1573C86.0275 63.6122 81.5318 66.6532 76.7486 69.1849C83.265 72.9409 90.0129 76.2801 96.9516 79.1825C102.046 77.6301 107.231 76.397 112.479 75.4904C112.28 74.2492 112.536 72.9778 113.2 71.9105C113.864 70.8431 114.891 70.0515 116.092 69.6816C117.294 69.3117 118.588 69.3884 119.738 69.8974C120.887 70.4064 121.814 71.3135 122.347 72.4518C122.881 73.59 122.985 74.8827 122.641 76.0917C122.297 77.3007 121.527 78.3447 120.475 79.0314C119.422 79.7181 118.156 80.0011 116.911 79.8286C115.666 79.656 114.525 79.0394 113.698 78.0922C113.642 78.02 113.59 77.9449 113.541 77.8674C109.227 78.5955 104.954 79.5485 100.739 80.7223C104.106 82.0429 107.505 83.2736 110.967 84.3975C110.967 84.3975 111.007 84.4369 111.023 84.4538C111.32 83.706 111.788 83.0382 112.389 82.5037C113.272 81.7153 114.396 81.2479 115.578 81.1771C116.76 81.1063 117.931 81.4364 118.902 82.1137C119.873 82.791 120.587 83.776 120.929 84.9096C121.271 86.0431 121.221 87.2589 120.786 88.3603C120.352 89.4617 119.558 90.3842 118.534 90.9788C117.51 91.5734 116.316 91.8052 115.144 91.6368C113.972 91.4683 112.891 90.9094 112.076 90.0506C111.261 89.1918 110.759 88.0831 110.652 86.9039C110.537 86.9038 110.422 86.8907 110.31 86.8647C108.751 86.3551 107.206 85.8287 105.673 85.2855C106.755 87.7094 108.021 90.0466 109.461 92.2765C110.452 92.0776 111.481 92.2399 112.362 92.7341C113.243 93.2284 113.918 94.0218 114.265 94.9708C114.612 95.9198 114.607 96.9616 114.252 97.9075C113.897 98.8534 113.215 99.641 112.329 100.127C111.444 100.614 110.413 100.767 109.425 100.56C108.436 100.352 107.554 99.7971 106.939 98.9955C106.324 98.1939 106.016 97.1985 106.072 96.1897C106.127 95.1809 106.542 94.2253 107.241 93.4959C105.358 90.5607 103.757 87.4542 102.459 84.2177C102.459 84.2177 102.453 84.156 102.442 84.1223C100.505 83.3992 98.5794 82.6423 96.6649 81.8518C96.5184 81.8515 96.3736 81.8204 96.24 81.7603C96.1063 81.7003 95.9869 81.6127 95.8894 81.5034C91.2213 79.5402 86.6487 77.3916 82.1717 75.0576C83.1784 76.7584 84.0847 78.5167 84.8861 80.3233C85.0376 80.3155 85.189 80.3404 85.33 80.3964C90.6294 82.751 95.6253 86.3645 96.9853 92.3439C98.615 99.5259 92.2197 104.494 91.6071 111.277C91.5228 112.316 90.0112 112.412 89.8314 111.535C80.4015 103.803 71.5728 89.6014 82.4695 79.4465C81.4403 77.3416 80.2706 75.3082 78.9684 73.3604C77.2487 72.4162 75.5516 71.4497 73.8657 70.4494C73.598 70.4606 73.3327 70.3938 73.1023 70.2571C72.8718 70.1204 72.686 69.9197 72.5675 69.6795C67.6596 66.7272 62.8941 63.5427 58.2709 60.1259L55.4217 60.1203C55.5172 60.9464 55.5735 61.7669 55.6297 62.5762L55.6409 62.6548L55.6746 62.6885C59.7601 65.4927 63.3906 69.6964 62.6263 75.0014C61.8058 80.7448 56.0736 84.0491 54.1236 89.2923C54.0636 89.4396 53.9688 89.5701 53.8474 89.6728C53.726 89.7754 53.5817 89.8473 53.4265 89.8821C53.2714 89.9169 53.1102 89.9137 52.9566 89.8726C52.803 89.8316 52.6615 89.7539 52.5444 89.6463C52.3709 89.6801 52.1913 89.66 52.0296 89.5887C51.8679 89.5174 51.7317 89.3982 51.6396 89.2474C48.6668 84.6448 46.0143 79.5983 46.7168 73.9392C47.0266 71.6132 47.8202 69.3778 49.0465 67.3771C50.2729 65.3764 51.9047 63.6548 53.837 62.3232C53.8032 61.5814 53.7303 60.8341 53.6291 60.1035L33.8419 60.0978C30.8922 62.5368 27.7708 64.7606 24.502 66.7516C23.0971 67.5946 21.8551 65.386 23.2488 64.543C25.5037 63.1824 27.6819 61.6985 29.7733 60.0979L4.254 60.1034L-3.38115e-05 55.8494L35.0109 55.8605C39.0627 52.2808 42.8223 48.3976 46.5313 44.4188C46.471 44.304 46.4364 44.1773 46.4301 44.0478C46.3739 42.8677 46.2447 41.7044 46.093 40.5412C35.8931 37.8605 31.7346 23.0582 37.596 14.8253C37.6693 14.7065 37.7694 14.6064 37.8882 14.5331C37.9435 14.3681 38.0448 14.2222 38.1802 14.1129C38.3156 14.0035 38.4795 13.9351 38.6524 13.9156C38.8254 13.8961 39.0002 13.9263 39.1565 14.0029C39.3128 14.0794 39.4441 14.1991 39.5348 14.3476C42.3166 19.2761 48.6556 21.5127 50.555 26.8178C52.033 30.9595 50.3134 35.2193 48.1891 38.7597C48.1381 38.8524 48.0691 38.9339 47.9861 38.9996C47.9031 39.0652 47.8077 39.1135 47.7058 39.1418C47.8912 40.3051 48.0374 41.4852 48.1273 42.6766C50.2852 40.3388 52.4376 37.9954 54.6181 35.6801C58.7548 31.2795 63.202 27.1815 67.9256 23.4178C67.9586 23.2397 68.0338 23.0721 68.1448 22.9289C71.7714 17.8037 75.5591 12.8021 79.5079 7.9242C79.4087 7.83622 79.3148 7.74239 79.2269 7.64322C78.5025 6.8335 78.0891 5.79291 78.0604 4.70685C78.0317 3.62078 78.3896 2.55994 79.0702 1.71311C79.7508 0.86627 80.7099 0.288449 81.7767 0.0828537C82.8435 -0.122758 83.9486 0.0570504 84.8952 0.590261C85.8418 1.12349 86.5683 1.97556 86.9453 2.99449C87.3223 4.01341 87.3253 5.13308 86.9538 6.15401C86.5822 7.17493 85.8603 8.0308 84.9166 8.56908C83.9728 9.10734 82.8686 9.29306 81.8008 9.09316C79.2531 12.2477 76.771 15.4453 74.3546 18.686C79.6794 15.0644 85.3357 11.9559 91.2475 9.4022C90.9705 8.16881 91.1533 6.87681 91.7614 5.7686C92.3695 4.6604 93.3612 3.81227 94.5503 3.38336C95.7394 2.95445 97.0441 2.97421 98.2196 3.43906C99.3951 3.90392 100.361 4.7818 100.935 5.90798C101.509 7.03416 101.652 8.3313 101.338 9.55567C101.024 10.7801 100.273 11.8476 99.2275 12.5579C98.1819 13.2683 96.913 13.5726 95.6589 13.4138C94.4049 13.2549 93.2519 12.6438 92.4164 11.6951L92.3771 11.6557C87.3092 13.8467 82.4363 16.4637 77.8107 19.4784C80.7349 20.202 83.7249 20.6276 86.7349 20.7485C87.4993 19.7077 88.6168 18.9812 89.8782 18.705C91.1396 18.4288 92.4585 18.6219 93.5878 19.248C94.7172 19.8741 95.5796 20.8904 96.0137 22.1065C96.4478 23.3227 96.4237 24.6554 95.946 25.8551C95.4683 27.0548 94.5698 28.0393 93.4185 28.6243C92.2673 29.2092 90.9423 29.3544 89.6917 29.0328C88.441 28.7113 87.3504 27.9448 86.6241 26.8772C85.8978 25.8095 85.5856 24.5138 85.7459 23.2324C82.1704 23.0336 78.6295 22.4265 75.192 21.4229C75.1471 21.4019 75.1038 21.3774 75.0626 21.3497C68.5842 25.9354 62.5537 31.123 57.0514 36.8434C58.4114 36.9557 59.7771 37.0514 61.1426 37.1132C61.1985 37.0351 61.2669 36.9667 61.345 36.9108C61.3602 36.7704 61.4126 36.6366 61.4967 36.5231C64.0368 33.1063 68.5494 29.2792 73.1351 29.7175C75.045 30.0154 76.836 30.8341 78.311 32.0835C81.4018 34.3427 83.9025 36.2589 87.7801 36.9894C88.8759 37.1974 88.4713 38.8046 87.4485 38.7372C83.3742 42.7553 78.3052 46.1047 72.3652 45.9529C70.0681 45.9395 67.8228 45.2702 65.8933 44.0237C63.9639 42.7772 62.4306 41.0055 61.4741 38.917C59.4511 38.8271 57.428 38.7035 55.4049 38.5237C54.7811 39.1474 54.1854 39.8106 53.5897 40.4625C51.3756 42.8678 49.1839 45.273 46.9584 47.622C50.1673 50.4825 53.4493 53.2137 56.8267 55.8269L91.4498 55.8212C98.7554 49.6395 105.73 42.8228 113.614 37.5234C113.584 37.38 113.589 37.2312 113.631 37.0907C114.698 33.6528 116.073 30.3181 117.739 27.1269C117.662 27.0734 117.596 27.0067 117.542 26.9301C114.766 22.3669 114.069 18.5006 117.374 13.9711C121.442 8.39628 128.282 4.40067 134.452 1.66946C134.632 1.58847 134.832 1.56557 135.025 1.60402C135.219 1.64248 135.395 1.74031 135.53 1.88394C135.665 2.02755 135.752 2.20974 135.778 2.40503C135.804 2.60032 135.769 2.79899 135.677 2.97326C135.048 9.02008 136.211 15.0389 132.901 20.5069C131.442 22.893 129.459 24.915 127.101 26.4195C124.744 27.924 122.074 28.8713 119.296 29.1893C119.11 29.2092 118.922 29.174 118.756 29.0881C117.65 31.3449 116.691 33.6707 115.884 36.051C123.974 31.0327 132.555 26.8542 141.494 23.5808C141.529 23.4124 141.6 23.2535 141.701 23.1144C145.509 17.9046 149.894 13.1425 154.773 8.91894C154.858 8.85402 154.951 8.79939 155.048 8.75604C154.367 7.6612 154.113 6.35413 154.333 5.08372C154.553 3.81331 155.233 2.6682 156.243 1.86658C157.253 1.06495 158.522 0.6627 159.809 0.736447C161.097 0.810204 162.312 1.35489 163.224 2.26661C164.135 3.17833 164.68 4.39348 164.754 5.68075C164.828 6.968 164.425 8.23739 163.624 9.24728C162.822 10.2572 161.677 10.9369 160.407 11.1572C159.136 11.3775 157.829 11.123 156.734 10.442C156.685 10.5281 156.624 10.6073 156.554 10.6779C152.573 14.1378 148.93 17.969 145.675 22.1196C150.084 20.6398 154.559 19.3716 159.1 18.3151C158.934 17.0722 159.221 15.8112 159.907 14.7618C160.594 13.7124 161.634 12.9446 162.839 12.5982C164.044 12.2518 165.334 12.35 166.473 12.8748C167.611 13.3996 168.524 14.316 169.043 15.4572C169.563 16.5984 169.655 17.8883 169.303 19.0918C168.951 20.2953 168.179 21.3324 167.126 22.0139C166.074 22.6953 164.811 22.9758 163.569 22.8044C162.327 22.633 161.188 22.0211 160.359 21.0801C160.256 20.9563 160.162 20.8247 160.078 20.6866C157.15 21.3666 154.245 22.1253 151.379 22.9795C156.05 24.8245 160.86 26.2941 165.765 27.3741C166.101 26.2674 166.795 25.3036 167.738 24.6338C168.681 23.964 169.819 23.6262 170.975 23.6734C172.13 23.7206 173.238 24.1501 174.123 24.8946C175.008 25.639 175.621 26.6563 175.865 27.7867C176.11 28.9171 175.972 30.0967 175.474 31.1404C174.975 32.184 174.145 33.0327 173.112 33.5533C172.079 34.0738 170.903 34.2368 169.767 34.0165C168.632 33.7963 167.602 33.2054 166.839 32.3364C166.245 31.6567 165.84 30.8331 165.664 29.9479C159.505 28.6172 153.488 26.6958 147.698 24.2103C147.673 24.1901 147.65 24.1674 147.63 24.1428C140.159 26.5752 132.905 29.6299 125.944 33.2749C127.908 34.8985 130.019 36.3358 132.249 37.5683C132.311 37.3738 132.446 37.2108 132.626 37.1131C136.531 34.8258 140.887 32.4038 145.59 33.3086C151.334 34.4213 154.503 40.131 158.971 43.3174C159.148 43.3604 159.309 43.4537 159.435 43.5862C159.56 43.7187 159.645 43.8846 159.678 44.064C159.711 44.2434 159.692 44.4285 159.622 44.5971C159.553 44.7658 159.436 44.9107 159.286 45.0144C153.924 48.6448 148.844 51.4321 142.263 49.9317C136.571 48.656 131.631 45.6945 132.03 39.5071C129.251 38.0278 126.639 36.253 124.241 34.2134C120.937 36.0005 117.683 37.9056 114.519 39.968C112.524 41.2774 110.602 42.6935 108.708 44.1715C115.01 48.2252 121.384 52.1235 127.832 55.8662L172.79 55.8662C177.949 53.667 182.988 51.213 187.907 48.5043C188.413 47.1443 188.924 45.79 189.464 44.4413C189.282 44.4835 189.092 44.4708 188.918 44.4048C188.744 44.3387 188.594 44.2223 188.486 44.0704C180.343 32.9489 193.324 25.306 202.175 21.5464C203.125 21.1474 203.94 22.3444 203.339 22.9345C203.755 27.1605 204.097 31.6957 202.029 35.5733C199.961 39.4509 195.69 42.1597 191.796 44.1209C191.702 44.1595 191.604 44.1859 191.504 44.1996C191.116 45.1606 190.711 46.116 190.368 47.1106C197.835 42.8321 205.019 38.0773 211.875 32.8759C211.805 32.6587 211.803 32.4254 211.869 32.2071C212.832 28.9372 214.052 25.7484 215.517 22.6704C214.42 22.3167 213.47 21.6098 212.817 20.66C212.164 19.7103 211.843 18.571 211.905 17.4199C211.967 16.2688 212.408 15.1706 213.16 14.2965C213.911 13.4224 214.931 12.8216 216.06 12.5878C217.189 12.354 218.363 12.5003 219.4 13.004C220.437 13.5076 221.278 14.3402 221.792 15.3719C222.306 16.4037 222.465 17.5766 222.242 18.7078C222.02 19.8389 221.43 20.8647 220.563 21.6251C219.879 22.2295 219.044 22.6373 218.147 22.8053C218.135 22.9507 218.098 23.0931 218.04 23.2268C216.906 25.5503 215.92 27.9435 215.09 30.3919C217.952 28.1515 220.75 25.8437 223.485 23.4684C222.972 22.3156 222.898 21.0151 223.277 19.8114C223.656 18.6078 224.461 17.584 225.542 16.9329C226.623 16.2817 227.905 16.048 229.146 16.2756C230.387 16.5033 231.502 17.1767 232.281 18.1691C233.061 19.1615 233.45 20.4045 233.377 21.6642C233.304 22.9239 232.773 24.1134 231.885 25.0091C230.996 25.9047 229.81 26.4446 228.551 26.5273C227.292 26.6099 226.046 26.2296 225.048 25.4578C220.091 29.7288 214.943 33.82 209.616 37.6751C215.77 41.8843 223.053 41.165 230.027 39.878C229.846 38.6364 230.118 37.3711 230.794 36.3138C231.47 35.2565 232.503 34.4779 233.706 34.1204C234.909 33.7629 236.2 33.8505 237.344 34.3671C238.487 34.8837 239.406 35.7948 239.933 36.9337C240.46 38.0725 240.559 39.363 240.212 40.5688C239.865 41.7747 239.096 42.8153 238.044 43.5003C236.993 44.1853 235.73 44.4688 234.487 44.299C233.244 44.1292 232.103 43.5174 231.274 42.5755C231.191 42.4734 231.114 42.3665 231.044 42.2552C223.261 43.7107 215.022 44.5649 208.177 39.7544C207.954 39.5905 207.792 39.3573 207.716 39.0913C198.655 45.5341 189.044 51.1662 178.994 55.9224L226.582 55.9224L226.582 125.809C229.656 121.69 232.64 117.503 235.343 113.137C239.269 106.589 242.096 99.4411 243.711 91.9786C242.999 87.7348 241.678 83.6161 239.788 79.7501C238.545 79.9221 237.281 79.6411 236.228 78.9586C235.175 78.2761 234.402 77.2375 234.051 76.0324C233.7 74.8273 233.794 73.5362 234.316 72.3948C234.838 71.2534 235.753 70.3378 236.894 69.8152C238.036 69.2926 239.327 69.198 240.532 69.5485C241.737 69.899 242.776 70.6712 243.459 71.7243C244.142 72.7774 244.423 74.0409 244.252 75.2843C244.081 76.5277 243.468 77.6679 242.525 78.4968C242.413 78.6092 242.261 78.6823 242.132 78.7778C243.246 81.0791 244.168 83.468 244.891 85.9205C245.917 79.305 246.594 72.6402 246.92 65.9536C245.843 65.2944 245.043 64.265 244.67 63.0584C244.298 61.8518 244.378 60.5508 244.896 59.399C245.413 58.2473 246.333 57.3239 247.483 56.8018C248.633 56.2797 249.934 56.1947 251.142 56.5629C252.35 56.931 253.382 57.7269 254.045 58.8015C254.709 59.8761 254.957 61.1557 254.745 62.4005C254.532 63.6453 253.873 64.7699 252.891 65.5636C251.909 66.3574 250.671 66.7657 249.409 66.7123C249.134 71.2586 248.814 75.8162 248.302 80.3289C251.531 76.8619 255.049 73.6753 258.817 70.8034C258.151 69.6977 257.914 68.3868 258.148 67.1179C258.383 65.849 259.074 64.7097 260.09 63.915C261.107 63.1202 262.379 62.7249 263.667 62.8035C264.955 62.8821 266.17 63.4292 267.082 64.3416C267.995 65.2541 268.542 66.4688 268.621 67.7568C268.699 69.0449 268.304 70.3172 267.509 71.3338C266.714 72.3504 265.575 73.0411 264.306 73.2757C263.037 73.5103 261.726 73.2726 260.621 72.6073C255.948 76.1241 251.677 80.1459 247.886 84.5998C247.836 84.6504 247.796 84.6897 247.746 84.7403C246.47 93.5127 244.267 102.088 240.013 110.097C239.665 110.748 239.294 111.4 238.928 112.047C240.832 111.192 242.675 110.252 244.458 109.226C244.516 109.186 244.578 109.154 244.644 109.13C244.728 109.046 244.852 109.001 244.953 108.945C244.895 106.703 245.362 104.479 246.317 102.45C247.273 100.421 248.689 98.6442 250.455 97.2611C255.979 92.8609 262.531 93.6027 269.017 92.3776C269.209 92.3399 269.409 92.3641 269.587 92.4469C269.765 92.5296 269.912 92.6665 270.008 92.838C270.103 93.0096 270.142 93.207 270.118 93.4018C270.095 93.5967 270.01 93.7792 269.876 93.923C269.869 94.0677 269.822 94.2076 269.741 94.3276C265.291 101.116 255.271 120.319 244.818 111.069C242.417 112.404 239.94 113.597 237.4 114.643C234.129 119.993 230.386 125.028 226.61 130.03L226.61 133.728C227.936 130.457 230.493 128.327 234.112 127.158C239.811 125.315 244.374 128.136 250.011 127.377C250.199 127.35 250.391 127.38 250.562 127.464C250.732 127.549 250.873 127.683 250.966 127.849C251.11 127.899 251.239 127.985 251.341 128.097C251.444 128.21 251.517 128.347 251.553 128.495C251.589 128.643 251.588 128.797 251.549 128.945C251.511 129.092 251.436 129.228 251.331 129.339C247.942 132.93 244.694 136.796 241.07 140.151C238.94 142.112 236.529 143.568 233.534 143.292C230.87 142.912 228.42 141.621 226.599 139.639L226.604 184.401C229.579 189.466 232.711 194.355 236.001 199.068C238.642 195.191 241.429 191.422 244.363 187.761C243.958 185.109 243.391 182.428 242.969 179.77C238.782 176.82 235.174 172.032 235.641 166.732C235.838 164.423 237.023 162.742 238.546 161.073C241.502 157.814 244.919 154.88 248.089 151.823C248.231 151.689 248.413 151.605 248.607 151.582C248.801 151.559 248.997 151.599 249.167 151.696C249.336 151.793 249.471 151.941 249.55 152.12C249.629 152.299 249.648 152.498 249.606 152.689C249.05 156.313 251.511 158.651 252.674 161.714C253.458 163.725 253.702 165.907 253.382 168.042C252.686 172.869 250.158 177.244 246.324 180.259C246.207 180.356 246.067 180.422 245.918 180.452C245.769 180.481 245.615 180.473 245.47 180.428C245.406 180.518 245.325 180.595 245.232 180.654C245.138 180.713 245.034 180.752 244.925 180.77C245.234 182.473 245.577 184.176 245.874 185.856C253.272 176.874 261.518 168.628 270.5 161.231C270.369 160.971 270.343 160.671 270.427 160.393C271.602 156.744 272.48 153.006 273.051 149.216C272.143 148.985 271.312 148.515 270.646 147.856C269.799 147.019 269.255 145.925 269.1 144.745C268.944 143.565 269.186 142.367 269.787 141.34C270.388 140.312 271.314 139.514 272.419 139.072C273.523 138.629 274.744 138.567 275.888 138.896C277.032 139.224 278.034 139.924 278.736 140.885C279.438 141.846 279.8 143.014 279.765 144.203C279.729 145.393 279.299 146.537 278.541 147.455C277.784 148.373 276.742 149.012 275.58 149.272C275.154 152.486 274.468 155.66 273.529 158.763C277.233 155.847 281.037 153.054 284.988 150.418C284.635 149.179 284.747 147.854 285.303 146.692C285.858 145.53 286.819 144.611 288.004 144.108C289.19 143.604 290.518 143.55 291.74 143.957C292.962 144.364 293.994 145.203 294.641 146.316C295.288 147.43 295.506 148.742 295.254 150.005C295.002 151.268 294.298 152.396 293.273 153.176C292.249 153.956 290.975 154.336 289.69 154.243C288.405 154.15 287.199 153.591 286.297 152.672L286.241 152.615C280.181 156.674 274.374 161.1 268.854 165.867C273.125 165.395 277.412 164.985 281.706 164.692C281.97 164.08 282.347 163.523 282.819 163.051C283.68 162.173 284.816 161.616 286.037 161.472C287.259 161.328 288.493 161.607 289.535 162.262C290.576 162.917 291.362 163.908 291.762 165.072C292.162 166.235 292.152 167.5 291.733 168.657C291.315 169.814 290.513 170.792 289.461 171.43C288.409 172.069 287.171 172.328 285.952 172.164C284.732 172.001 283.606 171.426 282.759 170.534C281.912 169.642 281.395 168.487 281.296 167.26C276.066 167.62 270.852 168.117 265.656 168.75C257.17 176.444 249.446 184.939 242.593 194.117C243.885 194.039 245.166 193.926 246.453 193.819C246.48 193.715 246.519 193.615 246.571 193.521C249.078 189.689 252.759 186.435 257.406 185.62C263.138 184.609 268.606 188.334 274.091 189.38C275.125 189.582 274.867 191.144 273.861 191.161C266.375 191.296 264.689 198.849 258.187 200.451C253.691 201.575 249.78 198.956 246.689 196.011C246.589 195.913 246.512 195.794 246.465 195.663C244.779 195.805 243.087 195.923 241.39 196.017C241.334 196.016 241.279 196.007 241.227 195.989C235.729 203.553 230.835 211.539 226.593 219.872L226.593 223.323C227.313 222.918 228.054 222.536 228.841 222.199C228.715 222.1 228.622 221.966 228.574 221.814C228.526 221.661 228.525 221.498 228.571 221.345C232.157 206.059 246.869 214.286 257.541 213.303C257.71 213.288 257.879 213.327 258.024 213.415C258.17 213.382 258.311 213.342 258.463 213.314C259.598 213.112 260.07 214.854 258.94 215.084C251.848 216.388 249.752 224.868 242.969 227.144C240.63 227.926 238.138 228.139 235.7 227.767C233.262 227.395 230.947 226.447 228.948 225.003C228.84 224.932 228.748 224.838 228.68 224.729C228.611 224.619 228.566 224.496 228.549 224.368C227.891 224.7 227.256 225.065 226.627 225.447L226.627 260.29C230.132 265.188 233.954 269.851 238.069 274.249C239.142 275.334 237.355 277.132 236.237 275.935ZM187.615 212.409C184.664 211.606 181.675 212.089 178.674 211.887C180.95 220.625 188.744 227.892 197.899 225.099C194.561 223.334 191.48 221.12 188.744 218.518C188.6 218.344 188.526 218.123 188.537 217.898C188.548 217.672 188.642 217.459 188.801 217.3C188.961 217.14 189.174 217.046 189.4 217.035C189.625 217.025 189.846 217.098 190.02 217.242C192.641 219.736 195.595 221.854 198.798 223.537C196.724 218.428 193.161 213.932 187.615 212.409ZM193.617 131.395C190.88 130.153 187.941 129.204 185.103 128.22C185.496 135.841 190.958 142.832 199.073 141.595L193.116 136.313C192.24 135.537 193.527 134.261 194.398 135.031L200.355 140.314C200.141 138.358 199.402 136.496 198.215 134.926C197.029 133.355 195.44 132.136 193.617 131.395ZM90.1517 109.405C91.1576 105.219 94.0012 101.948 95.1139 97.6994C97.0077 90.6017 91.6072 85.5384 85.8976 82.6386C87.3102 86.2967 88.3129 90.1002 88.8873 93.9793C89.0559 95.1144 87.2912 95.5752 87.117 94.4568C86.4443 89.8771 85.1531 85.4098 83.2787 81.1774C74.3096 90.2027 82.0424 102.33 90.1517 109.405ZM48.4701 75.3217C48.3128 79.9074 50.4989 83.9705 52.9041 87.7469C54.1629 85.0382 56.0962 82.914 57.9619 80.5312C62.3959 74.8497 61.1651 69.1231 55.7927 64.9646C55.9575 68.07 55.9594 71.1821 55.7983 74.2877C55.7477 75.4622 53.9269 75.451 53.9887 74.2877C54.146 71.3766 54.1854 68.4713 54.0506 65.549L54.0169 64.5487C52.383 65.85 51.0437 67.4829 50.0875 69.34C49.1314 71.197 48.5802 73.2359 48.4701 75.3217ZM45.4523 23.1537C42.8953 20.8889 40.5687 19.1693 38.7086 16.41C34.4095 23.5302 37.4948 35.6071 45.7446 38.4844C45.142 35.0018 44.1192 31.6052 42.6987 28.3689C42.2379 27.3124 43.8057 26.4075 44.2778 27.4753C45.5828 30.4376 46.5809 33.5259 47.2563 36.6917C49.8301 31.9037 50.0773 27.2617 45.4523 23.1537ZM74.838 43.9861C78.9797 43.3736 82.4189 41.0581 85.4142 38.2651C82.8435 37.4112 80.4511 36.0931 78.3558 34.3763C75.8213 32.415 73.6746 30.9201 70.3252 31.9654C67.5257 32.9825 65.0869 34.8 63.3119 37.1918C67.5323 37.3323 71.7639 37.3154 75.99 37.0794C77.1701 37.0232 77.1533 38.8272 75.99 38.889C71.837 39.1194 67.684 39.1363 63.5198 38.9958C65.7284 42.9802 70.2804 44.6886 74.838 43.9861ZM132.395 17.5059C134.16 13.1899 133.519 8.51432 133.834 4.0073C125.404 7.9411 113.434 15.4154 118.756 25.3792C121.119 21.2216 123.978 17.3663 127.27 13.898C127.44 13.7281 127.67 13.6327 127.911 13.6327C128.151 13.6327 128.381 13.7282 128.551 13.8981C128.721 14.068 128.817 14.2983 128.817 14.5386C128.817 14.7789 128.721 15.0094 128.551 15.1793C125.084 18.8328 122.119 22.9319 119.734 27.3685C125.371 26.3513 130.153 22.9626 132.395 17.5059ZM137.762 46.2845C140.26 47.7173 143.072 48.5144 145.95 48.6055C150.215 48.6448 153.801 46.5205 157.229 44.2389C154.43 42.0022 152.255 39.0969 149.316 37.0457C144.028 33.3422 138.892 35.6127 133.929 38.4619C136.904 39.9307 140.043 41.04 143.281 41.7663C144.416 42.0248 143.955 43.7781 142.803 43.5364C139.699 42.8275 136.682 41.7817 133.806 40.4175C133.851 43.1262 135.053 44.7785 137.751 46.2733L137.762 46.2845ZM200.681 34.1571C202.209 30.8977 201.979 27.2392 201.641 23.7325C193.819 27.2055 183.04 33.4097 190.048 43.0813C191.549 39.4004 193.15 35.7643 194.887 32.1846C195.398 31.1337 196.977 32.0273 196.46 33.0838C195.083 35.9105 193.796 38.771 192.571 41.6707C195.848 39.8556 199.068 37.5683 200.669 34.1459L200.681 34.1571ZM133.57 81.363C136.119 83.8509 139.147 85.7936 142.471 87.0726C141.577 84.9078 141.045 82.6103 140.898 80.2726C140.791 78.3001 141.184 76.2657 140.937 74.2988C140.364 69.7806 137.223 68.0666 133.216 67.499C133.704 69.1201 134.318 70.7004 135.053 72.2252C135.565 73.2649 134.002 74.164 133.485 73.1187C132.645 71.3846 131.949 69.584 131.406 67.7351C126.674 71.3429 129.979 77.9405 133.57 81.363ZM38.7986 55.8719L52.4039 55.8662C52.401 55.7755 52.4183 55.6853 52.4545 55.6021C50.0043 53.6314 47.599 51.6008 45.2387 49.5102C43.1707 51.657 41.0128 53.815 38.793 55.8662L38.7986 55.8719ZM62.6319 60.1372C66.3821 62.7935 70.2317 65.313 74.1805 67.6958C78.4476 65.6078 82.484 63.0782 86.2236 60.1485L62.6319 60.1372ZM106.825 45.9642C106.776 45.9201 106.729 45.8732 106.685 45.8237C102.762 49.0382 98.9859 52.5 95.1532 55.8718L122.842 55.8661C117.428 52.6703 112.084 49.3642 106.809 45.9474L106.825 45.9642ZM135.374 60.126C138.273 61.722 141.194 63.2974 144.135 64.8522C150.073 63.6552 155.928 62.0765 161.663 60.1259L135.374 60.126ZM267.477 94.4456C258.491 95.8899 247.223 96.4799 246.723 107.826C250.437 105.491 253.91 102.794 257.091 99.7731C257.265 99.6292 257.486 99.5553 257.712 99.5659C257.937 99.5765 258.15 99.6707 258.31 99.8303C258.47 99.9898 258.564 100.203 258.574 100.428C258.585 100.654 258.511 100.875 258.367 101.049C254.737 104.499 250.733 107.534 246.431 110.097C254.905 116.705 263.346 101.083 267.494 94.4175L267.477 94.4456ZM245.015 178.95C249.786 175.021 253.276 168.441 250.842 162.298C249.741 159.488 248.094 157.302 247.78 154.515C244.751 157.252 241.266 160.05 239.018 163.276C235.607 168.16 238.501 173.684 242.581 177.202C242.16 173.24 242.317 169.317 244.166 165.502C244.677 164.451 246.251 165.339 245.74 166.389C243.823 170.34 243.913 174.499 244.531 178.669L245.015 178.95ZM257.76 198.439C261.081 197.635 262.745 194.938 265.139 192.768C266.477 191.513 268.07 190.56 269.809 189.975C266.516 188.773 263.245 187.278 259.957 187.194C255.282 187.07 251.331 189.964 248.701 193.606C251.607 193.319 254.506 192.971 257.395 192.521C258.53 192.341 258.985 194.112 257.873 194.291C254.853 194.756 251.826 195.138 248.791 195.438C251.359 197.714 254.197 199.293 257.755 198.433L257.76 198.439ZM248.505 220.923C250.426 218.743 252.028 216.579 254.192 215.056C244.947 214.41 233.404 209.431 230.375 221.463C233.678 220.146 237.113 219.187 240.62 218.602C241.761 218.406 242.233 220.148 241.098 220.373C237.322 220.984 233.635 222.052 230.117 223.553C236.237 227.616 243.615 226.464 248.499 220.918L248.505 220.923ZM235.838 141.303C238.024 140.578 239.811 138.825 241.367 137.223C243.93 134.582 246.425 131.873 248.937 129.192C246.656 129.108 244.389 128.805 242.165 128.288C236.647 127.344 230.37 129.282 228.217 134.571C231.558 133.805 234.835 132.783 238.018 131.513C239.103 131.114 239.558 132.862 238.496 133.284C234.958 134.699 231.295 135.777 227.554 136.504C227.439 136.642 227.281 136.737 227.105 136.773C227.2 139.96 233.961 141.921 235.832 141.297L235.838 141.303ZM222.328 136.92C222.052 136.914 221.783 136.88 221.507 136.863C217.907 141.701 214.724 146.835 211.993 152.211C211.931 152.348 211.841 152.471 211.729 152.572C211.616 152.672 211.484 152.748 211.341 152.795C214.489 161.003 218.159 169.001 222.328 176.741L222.328 136.92ZM234.478 201.277C231.754 197.392 229.124 193.379 226.588 189.239L226.582 214.421C229.028 209.922 231.658 205.538 234.472 201.271L234.478 201.277ZM222.317 228.802C220.17 233.669 218.235 238.639 216.511 243.711C218.306 247.162 220.241 250.524 222.317 253.799L222.317 228.802Z" fill="#C3937C"/>
<path d="M245.257 162.794C245.087 162.624 244.992 162.393 244.992 162.153C244.992 161.913 245.087 161.682 245.257 161.512C245.427 161.342 245.657 161.247 245.898 161.247C246.138 161.247 246.368 161.342 246.538 161.512C246.708 161.682 246.804 161.913 246.804 162.153C246.804 162.393 246.708 162.624 246.538 162.794C246.368 162.963 246.138 163.059 245.898 163.059C245.657 163.059 245.427 162.963 245.257 162.794Z" fill="#C3937C"/>
<path d="M261.487 191.96C261.631 192.133 261.704 192.355 261.694 192.58C261.683 192.805 261.589 193.019 261.43 193.178C261.27 193.338 261.057 193.432 260.831 193.443C260.606 193.453 260.385 193.379 260.211 193.235C260.067 193.062 259.993 192.84 260.004 192.615C260.014 192.39 260.109 192.176 260.268 192.017C260.428 191.857 260.641 191.763 260.866 191.752C261.092 191.742 261.313 191.816 261.487 191.96Z" fill="#C3937C"/>
<path d="M245.2 217.642C246.296 217.254 246.746 219.007 245.678 219.412L244.217 219.929C243.121 220.317 242.666 218.569 243.734 218.164L245.2 217.642Z" fill="#C3937C"/>
<path d="M186.339 216.843L184.973 215.815C184.771 215.691 184.624 215.495 184.56 215.267C184.496 215.039 184.522 214.795 184.631 214.584C184.69 214.481 184.768 214.39 184.862 214.317C184.957 214.244 185.064 214.191 185.179 214.159C185.294 214.128 185.414 214.12 185.532 214.135C185.65 214.15 185.764 214.188 185.867 214.247L187.232 215.264C187.434 215.39 187.58 215.587 187.642 215.817C187.705 216.046 187.679 216.29 187.57 216.5C187.45 216.707 187.254 216.859 187.024 216.923C186.794 216.987 186.548 216.958 186.339 216.843Z" fill="#C3937C"/>
<path d="M260.699 98.0873L261.031 97.7557C261.205 97.6118 261.426 97.5379 261.651 97.5485C261.876 97.559 262.09 97.6533 262.249 97.8128C262.409 97.9724 262.503 98.1857 262.514 98.411C262.524 98.6364 262.45 98.8576 262.306 99.0314L261.975 99.363C261.801 99.5069 261.58 99.5808 261.355 99.5702C261.129 99.5596 260.916 99.4654 260.756 99.3058C260.597 99.1463 260.503 98.933 260.492 98.7076C260.481 98.4822 260.555 98.261 260.699 98.0873Z" fill="#C3937C"/>
<path d="M240.806 131.042C241.176 131.037 241.539 130.941 241.863 130.761C241.966 130.702 242.08 130.664 242.198 130.649C242.316 130.634 242.436 130.642 242.551 130.673C242.665 130.705 242.773 130.758 242.867 130.831C242.961 130.904 243.04 130.995 243.099 131.098C243.158 131.201 243.196 131.315 243.211 131.433C243.226 131.551 243.218 131.671 243.186 131.786C243.155 131.901 243.101 132.008 243.029 132.103C242.956 132.197 242.865 132.275 242.762 132.334C242.162 132.668 241.487 132.843 240.8 132.846C239.609 132.835 239.637 131.053 240.806 131.042Z" fill="#C3937C"/>
<path d="M191.262 135.02L190.307 134.379C189.34 133.739 190.25 132.188 191.2 132.812L192.161 133.447C193.122 134.093 192.234 135.666 191.262 135.02Z" fill="#C3937C"/>
<path d="M196.343 29.9319C196.568 29.5497 196.798 29.1732 197.023 28.7911C197.082 28.6878 197.161 28.5971 197.255 28.5243C197.349 28.4514 197.456 28.3978 197.571 28.3665C197.686 28.3352 197.806 28.3267 197.924 28.3417C198.042 28.3567 198.156 28.3949 198.259 28.4539C198.363 28.513 198.453 28.5917 198.526 28.6858C198.599 28.7798 198.652 28.8874 198.684 29.0022C198.715 29.117 198.724 29.2369 198.709 29.3549C198.694 29.473 198.655 29.5869 198.596 29.6902C198.366 30.0667 198.141 30.4488 197.911 30.8253C197.781 31.0109 197.587 31.1415 197.367 31.1913C197.146 31.2412 196.915 31.2068 196.719 31.0948C196.522 30.9828 196.375 30.8015 196.305 30.5863C196.236 30.3711 196.249 30.1376 196.343 29.9319Z" fill="#C3937C"/>
<path d="M128.625 11.4768C128.85 11.0946 129.08 10.7181 129.311 10.3304C129.44 10.1448 129.634 10.0143 129.854 9.96441C130.075 9.91456 130.306 9.94894 130.503 10.0609C130.699 10.1729 130.847 10.3543 130.916 10.5694C130.986 10.7846 130.972 11.0181 130.879 11.2239C130.654 11.606 130.429 11.9881 130.199 12.3646C130.072 12.5544 129.878 12.6892 129.655 12.742C129.433 12.7949 129.199 12.7618 129 12.6496C128.802 12.5373 128.653 12.3543 128.583 12.1369C128.513 11.9194 128.528 11.6836 128.625 11.4768Z" fill="#C3937C"/>
<path d="M145.361 42.1715L147.788 42.7559C148.923 43.0257 148.463 44.7791 147.311 44.5262L144.883 43.9417C143.77 43.6495 144.231 41.8962 145.361 42.1715Z" fill="#C3937C"/>
<path d="M136.301 75.1029L137.65 76.935C138.341 77.8735 136.756 78.7613 136.076 77.8341L134.722 75.9965C134.065 75.0356 135.644 74.1419 136.301 75.1029Z" fill="#C3937C"/>
<path d="M79.6092 37.4056C79.841 37.4178 80.0593 37.5184 80.2191 37.6868C80.3789 37.8551 80.468 38.0784 80.468 38.3105C80.468 38.5426 80.3789 38.7658 80.2191 38.9342C80.0594 39.1025 79.8411 39.2031 79.6093 39.2153L79.0473 39.2153C78.8229 39.1933 78.6147 39.0883 78.4634 38.9211C78.3122 38.7538 78.2288 38.5361 78.2295 38.3106C78.2302 38.0851 78.315 37.868 78.4672 37.7017C78.6195 37.5354 78.8284 37.4319 79.0529 37.4113L79.6092 37.4056Z" fill="#C3937C"/>
<path d="M40.4621 25.3456L39.5067 24.053C38.8211 23.1201 40.3947 22.2323 41.0803 23.1539L42.03 24.4521C42.7381 25.3737 41.1589 26.2672 40.4621 25.3456Z" fill="#C3937C"/>
<path d="M89.5957 98.5203L89.7307 100.746C89.7813 101.92 87.9885 101.903 87.9211 100.746L87.7918 98.5146C87.7524 97.3626 89.5508 97.3739 89.5957 98.5203Z" fill="#C3937C"/>
<path d="M54.8598 77.1256L54.7137 79.5196C54.6575 80.6998 52.831 80.6828 52.9041 79.5196L53.0502 77.1255C53.1289 75.9679 54.9328 75.9623 54.8598 77.1256Z" fill="#C3937C"/>
</svg>
